<svg xmlns="http://www.w3.org/2000/svg" viewBox="0 0 100 22.14"><defs><style>.a{fill:#fff}</style></defs><title>city university logo</title><path d="M7.58,4.93A2.45,2.45,0,0,0,5.2,3C3.53,3,2.51,4.6,2.51,7.68s.87,4.63,2.76,4.63c1.13,0,1.82-.4,2.59-1.94l2.31.61a4.8,4.8,0,0,1-4.9,3.44C1.93,14.42,0,12,0,7.67S1.93.93,5.28.93A4.22,4.22,0,0,1,9.86,4.39Z" class="a" transform="translate(0 -0.93)"/><path d="M11.22,3V.93h2.27V3Zm2.27,11.2H11.22V4.79h2.27Z" class="a" transform="translate(0 -0.93)"/><path d="M15.7,4.79V1.67H18V4.8H19.8V6.61H18V12c0,.51.26.65.82.65a4.63,4.63,0,0,0,1-.18v1.85a17.8,17.8,0,0,1-1.78.15c-1.68,0-2.33-.84-2.33-2.19V6.6H14.39V4.79Z" class="a" transform="translate(0 -0.93)"/><path d="M20.26,15.77a4.3,4.3,0,0,0,.95.07,1.41,1.41,0,0,0,1.47-.74,2.4,2.4,0,0,0,.37-1.1,4.81,4.81,0,0,0-.29-1.13L20.24,4.79h2.27l1.57,5.82h0l1.61-5.82H28l-3,9.47c-1,2.71-1.8,3.43-3.65,3.43a5.81,5.81,0,0,1-1.1-.07Z" class="a" transform="translate(0 -0.93)"/><path d="M36.57,1.11h2.51V9.33c0,3.84-2.36,5.09-5,5.09s-5-1.25-5-5.09V1.11h2.51V9.44c0,2.13.83,2.87,2.53,2.87s2.52-.73,2.52-2.87Z" class="a" transform="translate(0 -0.93)"/><path d="M42.47,4.79V6.06h0A3.92,3.92,0,0,1,45.3,4.6,2.53,2.53,0,0,1,48,7.37v6.87H46.72V7.4c0-1.25-.6-1.67-1.54-1.67a4.44,4.44,0,0,0-2.71,1.44v7.07H41.15V4.79Z" class="a" transform="translate(0 -0.93)"/><path d="M51.78.93V2.49H50.47V.93ZM50.47,4.79h1.31v9.45H50.47Z" class="a" transform="translate(0 -0.93)"/><path d="M57.85,14.24H56.11L53.2,4.79h1.32l2.4,7.81h0l2.4-7.81H60.7Z" class="a" transform="translate(0 -0.93)"/><path d="M68.81,12.22a3.77,3.77,0,0,1-3.63,2.21c-2.16,0-4.11-1.46-4.11-4.92,0-3,1.51-4.89,3.84-4.89,2,0,3.6,1.27,3.6,4.29v.87H62.36c0,2.08,1.24,3.53,2.8,3.53a2.9,2.9,0,0,0,2.62-1.6ZM67.22,8.64c0-1.74-.84-2.91-2.26-2.91-1.58,0-2.43,1.16-2.54,2.91Z" class="a" transform="translate(0 -0.93)"/><path d="M70.18,4.79h1.31V6.66h0a3.24,3.24,0,0,1,3.08-2V6C73,6,72.11,7.06,71.49,9v5.23H70.18Z" class="a" transform="translate(0 -0.93)"/><path d="M76.14,11.84a3.23,3.23,0,0,0,2.71,1.46c1.42,0,2-.77,2-1.57,0-2.4-5.6-1.12-5.49-4.58,0-1.64,1.31-2.56,3.13-2.54a4.13,4.13,0,0,1,3.23,1.65l-.91.8a3,3,0,0,0-2.43-1.33c-1.11,0-1.71.56-1.71,1.4,0,2.05,5.49,1,5.49,4.53,0,1.84-1.6,2.76-3.32,2.76a4.72,4.72,0,0,1-3.78-1.8Z" class="a" transform="translate(0 -0.93)"/><path d="M85.16.93V2.49H83.85V.93ZM83.85,4.79h1.31v9.45H83.85Z" class="a" transform="translate(0 -0.93)"/><path d="M88.15,4.79V1.67h1.32V4.78h2.18V5.91H89.47v6.73c0,.44.31.65,1.07.65a7.67,7.67,0,0,0,1.17-.08v1.07a6.57,6.57,0,0,1-1.53.15c-1.42,0-2-.37-2-1.57V5.91H86.62V4.79Z" class="a" transform="translate(0 -0.93)"/><path d="M100,4.79,96.68,15.08c-.69,2.11-2,2.65-3.18,2.65a5,5,0,0,1-1-.11V16.55a5.65,5.65,0,0,0,.71.05c.8,0,2-.18,2.47-2.25L92.42,4.79H93.8L96.36,12h0l2.21-7.22Z" class="a" transform="translate(0 -0.93)"/><path d="M30,20.87a1.94,1.94,0,1,1-3.85,0,1.94,1.94,0,1,1,3.85,0ZM28,19.14c-1,0-1.39,1-1.39,1.73S27,22.61,28,22.61s1.39-1,1.39-1.74S29,19.14,28,19.14Z" class="a" transform="translate(0 -0.93)"/><path d="M31.09,22.94V19.25h-.83v-.44h.83v-.88c0-.71.29-1,1-1a2.6,2.6,0,0,1,.47.09v.4l-.31,0c-.68,0-.69.34-.66.93v.53h.93v.45h-.93V23Z" class="a" transform="translate(0 -0.93)"/><path d="M37.2,23.06a1.73,1.73,0,0,1-1.78-1.66H36c0,.92.7,1.18,1.48,1.18a1.28,1.28,0,0,0,1.43-1.15c0-.59-.43-.87-.93-1-1-.32-2.43-.63-2.43-1.91a1.73,1.73,0,0,1,1.9-1.6c.78,0,1.8.26,1.93,1.41h-.58c0-.74-.68-.92-1.29-.92s-1.38.31-1.38,1c0,1.68,3.36.91,3.36,3C39.5,22.67,38.38,23.06,37.2,23.06Z" class="a" transform="translate(0 -0.93)"/><path d="M40.83,21c0,.88.42,1.62,1.43,1.62a1.23,1.23,0,0,0,1.19-1H44a1.73,1.73,0,0,1-1.87,1.44c-1.23,0-1.81-1.06-1.81-2.19a2,2,0,0,1,1.85-2.18c1.38,0,1.88,1,1.88,2.3Zm2.66-.45a1.32,1.32,0,0,0-1.34-1.4c-.86,0-1.24.67-1.3,1.4Z" class="a" transform="translate(0 -0.93)"/><path d="M47.33,20c0-.68-.4-.89-1-.89s-1,.15-1,.71h-.53c.12-.85.74-1.16,1.55-1.16s1.47.41,1.47,1.36v2c0,.32,0,.65,0,.93h-.51v-.61h0l0,.06a1.54,1.54,0,0,1-1.29.67,1.28,1.28,0,0,1-.54-2.47,5.56,5.56,0,0,1,1.86-.18ZM46.1,22.61c1.07,0,1.28-.89,1.23-1.75-.7,0-2.16-.11-2.16.93a.82.82,0,0,0,.81.83Z" class="a" transform="translate(0 -0.93)"/><path d="M49.26,19.26h-.82v-.45h.82v-.88l.49-.22v1.11h1v.44h-.94V22a.51.51,0,0,0,.42.58.65.65,0,0,0,.14,0,1.54,1.54,0,0,0,.43-.05V23a2.08,2.08,0,0,1-.5.07c-1,0-1-.67-1-1.22Z" class="a" transform="translate(0 -0.93)"/><path d="M52,19.26h-.83v-.45H52v-.88l.49-.22v1.11h.94v.44h-.94V22a.52.52,0,0,0,.43.58h.14a1.58,1.58,0,0,0,.43-.05V23a2.15,2.15,0,0,1-.5.07c-1,0-1-.67-1-1.22Z" class="a" transform="translate(0 -0.93)"/><path d="M54.72,22.94h-.5V17h.5Z" class="a" transform="translate(0 -0.93)"/><path d="M56.17,21c0,.88.41,1.62,1.43,1.62a1.24,1.24,0,0,0,1.19-1h.51a1.73,1.73,0,0,1-1.86,1.44c-1.24,0-1.82-1.06-1.82-2.19a2,2,0,0,1,1.85-2.18c1.38,0,1.88,1,1.88,2.3Zm2.65-.45a1.32,1.32,0,0,0-1.34-1.4c-.86,0-1.23.67-1.3,1.4Z" class="a" transform="translate(0 -0.93)"/></svg>